# xmcd
# 
# Track frame offsets:
#     150
#     12580
#     21503
#     33930
#     43989
#     54424
#     62212
#     73807
#     85599
#     97814
# 
# Disc length: 1393
# 
# Revision: 0
# Processed by: cddbd v1.5.2PL0 Copyright (c) Steve Scherf et al.
# Submitted via: BonkEnc v1.0.6
# 
DISCID=83056f0a
DTITLE=Various Artist - Country Outlaws Disk2
DYEAR=0
DGENRE=Country
TTITLE0=Merle Haggard - The Fighting Side Of Me (Merle Haggard)
TTITLE1=Willie Nelson - Why Are You Picking On Me (Willie Nelson)
TTITLE2=Merle Haggard - Working Man Blues (Merle Haggard)
TTITLE3=Johnny Paycheck - Motel Time Again (Johnny Paycheck)
TTITLE4=Waylon Jennings - Money (Waylon Jennings)
TTITLE5=Merle Haggard - Branded Man (Merle Haggard)
TTITLE6=Johnny Paycheck - For A Minute There (Johnny Paycheck)
TTITLE7=Willie Nelson - Nightlife (Willie Nelson)
TTITLE8=Merle Haggard - Good Old Boys (Moe Bandy)
TTITLE9=Willie Nelson - Both Ends Of The Candle (Willie Nelson)
EXTD=
EXTT0=
EXTT1=
EXTT2=
EXTT3=
EXTT4=
EXTT5=
EXTT6=
EXTT7=
EXTT8=
EXTT9=
PLAYORDER=
